<mxfile host="Electron" modified="2024-06-04T10:48:21.151Z" agent="Mozilla/5.0 (Macintosh; Intel Mac OS X 10_15_7) AppleWebKit/537.36 (KHTML, like Gecko) draw.io/21.6.8 Chrome/114.0.5735.289 Electron/25.5.0 Safari/537.36" etag="W31Fueicz9cR0cq-MSil" version="21.6.8" type="device">
  <diagram id="C5RBs43oDa-KdzZeNtuy" name="Page-1">
    <mxGraphModel dx="2261" dy="907" grid="1" gridSize="10" guides="1" tooltips="1" connect="1" arrows="1" fold="1" page="1" pageScale="1" pageWidth="827" pageHeight="1169" math="0" shadow="0">
      <root>
        <mxCell id="WIyWlLk6GJQsqaUBKTNV-0" />
        <mxCell id="WIyWlLk6GJQsqaUBKTNV-1" parent="WIyWlLk6GJQsqaUBKTNV-0" />
        <mxCell id="WIyWlLk6GJQsqaUBKTNV-2" value="" style="rounded=0;html=1;jettySize=auto;orthogonalLoop=1;fontSize=11;endArrow=block;endFill=0;endSize=8;strokeWidth=1;shadow=0;labelBackgroundColor=none;edgeStyle=orthogonalEdgeStyle;strokeColor=#E07A5F;fontColor=default;" parent="WIyWlLk6GJQsqaUBKTNV-1" source="WIyWlLk6GJQsqaUBKTNV-3" target="WIyWlLk6GJQsqaUBKTNV-6" edge="1">
          <mxGeometry relative="1" as="geometry" />
        </mxCell>
        <mxCell id="WIyWlLk6GJQsqaUBKTNV-3" value="Landing Page" style="rounded=0;whiteSpace=wrap;html=1;fontSize=12;glass=0;strokeWidth=1;shadow=0;labelBackgroundColor=none;fillColor=#F2CC8F;strokeColor=#E07A5F;fontColor=#393C56;" parent="WIyWlLk6GJQsqaUBKTNV-1" vertex="1">
          <mxGeometry x="414" y="10" width="120" height="40" as="geometry" />
        </mxCell>
        <mxCell id="WIyWlLk6GJQsqaUBKTNV-6" value="token select&lt;br&gt;Login" style="rhombus;whiteSpace=wrap;html=1;shadow=0;fontFamily=Helvetica;fontSize=12;align=center;strokeWidth=1;spacing=6;spacingTop=-4;rounded=0;labelBackgroundColor=none;fillColor=#F2CC8F;strokeColor=#E07A5F;fontColor=#393C56;" parent="WIyWlLk6GJQsqaUBKTNV-1" vertex="1">
          <mxGeometry x="424" y="110" width="100" height="80" as="geometry" />
        </mxCell>
        <mxCell id="Vz3MWEpDqE40yLbbSGrD-3" value="" style="endArrow=classic;html=1;rounded=0;exitX=1;exitY=0.5;exitDx=0;exitDy=0;entryX=0;entryY=0;entryDx=0;entryDy=0;labelBackgroundColor=none;strokeColor=#E07A5F;fontColor=default;" edge="1" parent="WIyWlLk6GJQsqaUBKTNV-1" source="WIyWlLk6GJQsqaUBKTNV-6" target="Vz3MWEpDqE40yLbbSGrD-14">
          <mxGeometry relative="1" as="geometry">
            <mxPoint x="540" y="149.5" as="sourcePoint" />
            <mxPoint x="670" y="150" as="targetPoint" />
          </mxGeometry>
        </mxCell>
        <mxCell id="Vz3MWEpDqE40yLbbSGrD-4" value="Master" style="edgeLabel;resizable=0;html=1;align=center;verticalAlign=middle;rounded=0;labelBackgroundColor=none;fontColor=#393C56;" connectable="0" vertex="1" parent="Vz3MWEpDqE40yLbbSGrD-3">
          <mxGeometry relative="1" as="geometry" />
        </mxCell>
        <mxCell id="Vz3MWEpDqE40yLbbSGrD-9" value="" style="endArrow=classic;html=1;rounded=0;exitX=0;exitY=0.5;exitDx=0;exitDy=0;entryX=1;entryY=0;entryDx=0;entryDy=0;labelBackgroundColor=none;strokeColor=#E07A5F;fontColor=default;" edge="1" parent="WIyWlLk6GJQsqaUBKTNV-1" source="WIyWlLk6GJQsqaUBKTNV-6" target="Vz3MWEpDqE40yLbbSGrD-33">
          <mxGeometry relative="1" as="geometry">
            <mxPoint x="420" y="150" as="sourcePoint" />
            <mxPoint x="290" y="150" as="targetPoint" />
          </mxGeometry>
        </mxCell>
        <mxCell id="Vz3MWEpDqE40yLbbSGrD-10" value="User" style="edgeLabel;resizable=0;html=1;align=center;verticalAlign=middle;rounded=0;labelBackgroundColor=none;fontColor=#393C56;" connectable="0" vertex="1" parent="Vz3MWEpDqE40yLbbSGrD-9">
          <mxGeometry relative="1" as="geometry">
            <mxPoint y="1" as="offset" />
          </mxGeometry>
        </mxCell>
        <mxCell id="Vz3MWEpDqE40yLbbSGrD-12" value="" style="endArrow=classic;html=1;rounded=0;exitX=0.5;exitY=1;exitDx=0;exitDy=0;labelBackgroundColor=none;strokeColor=#E07A5F;fontColor=default;entryX=0.5;entryY=0;entryDx=0;entryDy=0;" edge="1" parent="WIyWlLk6GJQsqaUBKTNV-1" source="WIyWlLk6GJQsqaUBKTNV-6" target="Vz3MWEpDqE40yLbbSGrD-24">
          <mxGeometry relative="1" as="geometry">
            <mxPoint x="470" y="280" as="sourcePoint" />
            <mxPoint x="474" y="290" as="targetPoint" />
          </mxGeometry>
        </mxCell>
        <mxCell id="Vz3MWEpDqE40yLbbSGrD-13" value="School" style="edgeLabel;resizable=0;html=1;align=center;verticalAlign=middle;rounded=0;labelBackgroundColor=none;fontColor=#393C56;" connectable="0" vertex="1" parent="Vz3MWEpDqE40yLbbSGrD-12">
          <mxGeometry relative="1" as="geometry" />
        </mxCell>
        <mxCell id="Vz3MWEpDqE40yLbbSGrD-14" value="Branches" style="swimlane;fontStyle=0;childLayout=stackLayout;horizontal=1;startSize=30;horizontalStack=0;resizeParent=1;resizeParentMax=0;resizeLast=0;collapsible=1;marginBottom=0;whiteSpace=wrap;html=1;rounded=0;labelBackgroundColor=none;fillColor=#F2CC8F;strokeColor=#E07A5F;fontColor=#393C56;" vertex="1" parent="WIyWlLk6GJQsqaUBKTNV-1">
          <mxGeometry x="590" y="150" width="140" height="210" as="geometry" />
        </mxCell>
        <mxCell id="Vz3MWEpDqE40yLbbSGrD-15" value="Schools" style="text;strokeColor=#E07A5F;fillColor=none;align=left;verticalAlign=middle;spacingLeft=4;spacingRight=4;overflow=hidden;points=[[0,0.5],[1,0.5]];portConstraint=eastwest;rotatable=0;whiteSpace=wrap;html=1;rounded=0;labelBackgroundColor=none;fontColor=#393C56;" vertex="1" parent="Vz3MWEpDqE40yLbbSGrD-14">
          <mxGeometry y="30" width="140" height="30" as="geometry" />
        </mxCell>
        <mxCell id="Vz3MWEpDqE40yLbbSGrD-16" value="Students" style="text;strokeColor=#E07A5F;fillColor=none;align=left;verticalAlign=middle;spacingLeft=4;spacingRight=4;overflow=hidden;points=[[0,0.5],[1,0.5]];portConstraint=eastwest;rotatable=0;whiteSpace=wrap;html=1;rounded=0;labelBackgroundColor=none;fontColor=#393C56;" vertex="1" parent="Vz3MWEpDqE40yLbbSGrD-14">
          <mxGeometry y="60" width="140" height="30" as="geometry" />
        </mxCell>
        <mxCell id="Vz3MWEpDqE40yLbbSGrD-17" value="Sets&lt;span style=&quot;white-space: pre;&quot;&gt;&#x9;&lt;/span&gt;" style="text;strokeColor=#E07A5F;fillColor=none;align=left;verticalAlign=middle;spacingLeft=4;spacingRight=4;overflow=hidden;points=[[0,0.5],[1,0.5]];portConstraint=eastwest;rotatable=0;whiteSpace=wrap;html=1;rounded=0;labelBackgroundColor=none;fontColor=#393C56;" vertex="1" parent="Vz3MWEpDqE40yLbbSGrD-14">
          <mxGeometry y="90" width="140" height="30" as="geometry" />
        </mxCell>
        <mxCell id="Vz3MWEpDqE40yLbbSGrD-42" value="Classes" style="text;strokeColor=#E07A5F;fillColor=none;align=left;verticalAlign=middle;spacingLeft=4;spacingRight=4;overflow=hidden;points=[[0,0.5],[1,0.5]];portConstraint=eastwest;rotatable=0;whiteSpace=wrap;html=1;rounded=0;labelBackgroundColor=none;fontColor=#393C56;" vertex="1" parent="Vz3MWEpDqE40yLbbSGrD-14">
          <mxGeometry y="120" width="140" height="30" as="geometry" />
        </mxCell>
        <mxCell id="Vz3MWEpDqE40yLbbSGrD-43" value="Books" style="text;strokeColor=#E07A5F;fillColor=none;align=left;verticalAlign=middle;spacingLeft=4;spacingRight=4;overflow=hidden;points=[[0,0.5],[1,0.5]];portConstraint=eastwest;rotatable=0;whiteSpace=wrap;html=1;rounded=0;labelBackgroundColor=none;fontColor=#393C56;" vertex="1" parent="Vz3MWEpDqE40yLbbSGrD-14">
          <mxGeometry y="150" width="140" height="30" as="geometry" />
        </mxCell>
        <mxCell id="Vz3MWEpDqE40yLbbSGrD-46" value="Users" style="text;strokeColor=#E07A5F;fillColor=none;align=left;verticalAlign=middle;spacingLeft=4;spacingRight=4;overflow=hidden;points=[[0,0.5],[1,0.5]];portConstraint=eastwest;rotatable=0;whiteSpace=wrap;html=1;rounded=0;labelBackgroundColor=none;fontColor=#393C56;" vertex="1" parent="Vz3MWEpDqE40yLbbSGrD-14">
          <mxGeometry y="180" width="140" height="30" as="geometry" />
        </mxCell>
        <mxCell id="Vz3MWEpDqE40yLbbSGrD-18" value="Options" style="swimlane;fontStyle=0;childLayout=stackLayout;horizontal=1;startSize=30;horizontalStack=0;resizeParent=1;resizeParentMax=0;resizeLast=0;collapsible=1;marginBottom=0;whiteSpace=wrap;html=1;rounded=0;labelBackgroundColor=none;fillColor=#F2CC8F;strokeColor=#E07A5F;fontColor=#393C56;" vertex="1" parent="WIyWlLk6GJQsqaUBKTNV-1">
          <mxGeometry x="840" y="60" width="140" height="150" as="geometry" />
        </mxCell>
        <mxCell id="Vz3MWEpDqE40yLbbSGrD-19" value="View&lt;br&gt;" style="text;strokeColor=#E07A5F;fillColor=none;align=left;verticalAlign=middle;spacingLeft=4;spacingRight=4;overflow=hidden;points=[[0,0.5],[1,0.5]];portConstraint=eastwest;rotatable=0;whiteSpace=wrap;html=1;rounded=0;labelBackgroundColor=none;fontColor=#393C56;" vertex="1" parent="Vz3MWEpDqE40yLbbSGrD-18">
          <mxGeometry y="30" width="140" height="30" as="geometry" />
        </mxCell>
        <mxCell id="Vz3MWEpDqE40yLbbSGrD-20" value="Edit" style="text;strokeColor=#E07A5F;fillColor=none;align=left;verticalAlign=middle;spacingLeft=4;spacingRight=4;overflow=hidden;points=[[0,0.5],[1,0.5]];portConstraint=eastwest;rotatable=0;whiteSpace=wrap;html=1;rounded=0;labelBackgroundColor=none;fontColor=#393C56;" vertex="1" parent="Vz3MWEpDqE40yLbbSGrD-18">
          <mxGeometry y="60" width="140" height="30" as="geometry" />
        </mxCell>
        <mxCell id="Vz3MWEpDqE40yLbbSGrD-21" value="Delete" style="text;strokeColor=#E07A5F;fillColor=none;align=left;verticalAlign=middle;spacingLeft=4;spacingRight=4;overflow=hidden;points=[[0,0.5],[1,0.5]];portConstraint=eastwest;rotatable=0;whiteSpace=wrap;html=1;rounded=0;labelBackgroundColor=none;fontColor=#393C56;" vertex="1" parent="Vz3MWEpDqE40yLbbSGrD-18">
          <mxGeometry y="90" width="140" height="30" as="geometry" />
        </mxCell>
        <mxCell id="Vz3MWEpDqE40yLbbSGrD-48" value="Create" style="text;strokeColor=#E07A5F;fillColor=none;align=left;verticalAlign=middle;spacingLeft=4;spacingRight=4;overflow=hidden;points=[[0,0.5],[1,0.5]];portConstraint=eastwest;rotatable=0;whiteSpace=wrap;html=1;rounded=0;labelBackgroundColor=none;fontColor=#393C56;" vertex="1" parent="Vz3MWEpDqE40yLbbSGrD-18">
          <mxGeometry y="120" width="140" height="30" as="geometry" />
        </mxCell>
        <mxCell id="Vz3MWEpDqE40yLbbSGrD-23" style="edgeStyle=orthogonalEdgeStyle;rounded=0;orthogonalLoop=1;jettySize=auto;html=1;exitX=1;exitY=0.5;exitDx=0;exitDy=0;entryX=0;entryY=0.5;entryDx=0;entryDy=0;labelBackgroundColor=none;strokeColor=#E07A5F;fontColor=default;" edge="1" parent="WIyWlLk6GJQsqaUBKTNV-1" source="Vz3MWEpDqE40yLbbSGrD-15" target="Vz3MWEpDqE40yLbbSGrD-19">
          <mxGeometry relative="1" as="geometry" />
        </mxCell>
        <mxCell id="Vz3MWEpDqE40yLbbSGrD-24" value="Branches" style="swimlane;fontStyle=0;childLayout=stackLayout;horizontal=1;startSize=30;horizontalStack=0;resizeParent=1;resizeParentMax=0;resizeLast=0;collapsible=1;marginBottom=0;whiteSpace=wrap;html=1;rounded=0;labelBackgroundColor=none;fillColor=#F2CC8F;strokeColor=#E07A5F;fontColor=#393C56;" vertex="1" parent="WIyWlLk6GJQsqaUBKTNV-1">
          <mxGeometry x="270" y="320" width="140" height="210" as="geometry" />
        </mxCell>
        <mxCell id="Vz3MWEpDqE40yLbbSGrD-25" value="Students" style="text;strokeColor=#E07A5F;fillColor=none;align=left;verticalAlign=middle;spacingLeft=4;spacingRight=4;overflow=hidden;points=[[0,0.5],[1,0.5]];portConstraint=eastwest;rotatable=0;whiteSpace=wrap;html=1;rounded=0;labelBackgroundColor=none;fontColor=#393C56;" vertex="1" parent="Vz3MWEpDqE40yLbbSGrD-24">
          <mxGeometry y="30" width="140" height="30" as="geometry" />
        </mxCell>
        <mxCell id="Vz3MWEpDqE40yLbbSGrD-26" value="Sets" style="text;strokeColor=#E07A5F;fillColor=none;align=left;verticalAlign=middle;spacingLeft=4;spacingRight=4;overflow=hidden;points=[[0,0.5],[1,0.5]];portConstraint=eastwest;rotatable=0;whiteSpace=wrap;html=1;rounded=0;labelBackgroundColor=none;fontColor=#393C56;" vertex="1" parent="Vz3MWEpDqE40yLbbSGrD-24">
          <mxGeometry y="60" width="140" height="30" as="geometry" />
        </mxCell>
        <mxCell id="Vz3MWEpDqE40yLbbSGrD-27" value="Classes" style="text;strokeColor=#E07A5F;fillColor=none;align=left;verticalAlign=middle;spacingLeft=4;spacingRight=4;overflow=hidden;points=[[0,0.5],[1,0.5]];portConstraint=eastwest;rotatable=0;whiteSpace=wrap;html=1;rounded=0;labelBackgroundColor=none;fontColor=#393C56;" vertex="1" parent="Vz3MWEpDqE40yLbbSGrD-24">
          <mxGeometry y="90" width="140" height="30" as="geometry" />
        </mxCell>
        <mxCell id="Vz3MWEpDqE40yLbbSGrD-45" value="Books" style="text;strokeColor=#E07A5F;fillColor=none;align=left;verticalAlign=middle;spacingLeft=4;spacingRight=4;overflow=hidden;points=[[0,0.5],[1,0.5]];portConstraint=eastwest;rotatable=0;whiteSpace=wrap;html=1;rounded=0;labelBackgroundColor=none;fontColor=#393C56;" vertex="1" parent="Vz3MWEpDqE40yLbbSGrD-24">
          <mxGeometry y="120" width="140" height="30" as="geometry" />
        </mxCell>
        <mxCell id="Vz3MWEpDqE40yLbbSGrD-47" value="Users" style="text;strokeColor=#E07A5F;fillColor=none;align=left;verticalAlign=middle;spacingLeft=4;spacingRight=4;overflow=hidden;points=[[0,0.5],[1,0.5]];portConstraint=eastwest;rotatable=0;whiteSpace=wrap;html=1;rounded=0;labelBackgroundColor=none;fontColor=#393C56;" vertex="1" parent="Vz3MWEpDqE40yLbbSGrD-24">
          <mxGeometry y="150" width="140" height="30" as="geometry" />
        </mxCell>
        <mxCell id="Vz3MWEpDqE40yLbbSGrD-105" value="Schools" style="text;strokeColor=#E07A5F;fillColor=none;align=left;verticalAlign=middle;spacingLeft=4;spacingRight=4;overflow=hidden;points=[[0,0.5],[1,0.5]];portConstraint=eastwest;rotatable=0;whiteSpace=wrap;html=1;rounded=0;labelBackgroundColor=none;fontColor=#393C56;" vertex="1" parent="Vz3MWEpDqE40yLbbSGrD-24">
          <mxGeometry y="180" width="140" height="30" as="geometry" />
        </mxCell>
        <mxCell id="Vz3MWEpDqE40yLbbSGrD-33" value="Branches" style="swimlane;fontStyle=0;childLayout=stackLayout;horizontal=1;startSize=30;horizontalStack=0;resizeParent=1;resizeParentMax=0;resizeLast=0;collapsible=1;marginBottom=0;whiteSpace=wrap;html=1;rounded=0;labelBackgroundColor=none;fillColor=#F2CC8F;strokeColor=#E07A5F;fontColor=#393C56;" vertex="1" parent="WIyWlLk6GJQsqaUBKTNV-1">
          <mxGeometry x="150" y="150" width="140" height="120" as="geometry" />
        </mxCell>
        <mxCell id="Vz3MWEpDqE40yLbbSGrD-34" value="Students" style="text;strokeColor=#E07A5F;fillColor=none;align=left;verticalAlign=middle;spacingLeft=4;spacingRight=4;overflow=hidden;points=[[0,0.5],[1,0.5]];portConstraint=eastwest;rotatable=0;whiteSpace=wrap;html=1;rounded=0;labelBackgroundColor=none;fontColor=#393C56;" vertex="1" parent="Vz3MWEpDqE40yLbbSGrD-33">
          <mxGeometry y="30" width="140" height="30" as="geometry" />
        </mxCell>
        <mxCell id="Vz3MWEpDqE40yLbbSGrD-35" value="Books" style="text;strokeColor=#E07A5F;fillColor=none;align=left;verticalAlign=middle;spacingLeft=4;spacingRight=4;overflow=hidden;points=[[0,0.5],[1,0.5]];portConstraint=eastwest;rotatable=0;whiteSpace=wrap;html=1;rounded=0;labelBackgroundColor=none;fontColor=#393C56;" vertex="1" parent="Vz3MWEpDqE40yLbbSGrD-33">
          <mxGeometry y="60" width="140" height="30" as="geometry" />
        </mxCell>
        <mxCell id="Vz3MWEpDqE40yLbbSGrD-36" value="User" style="text;strokeColor=#E07A5F;fillColor=none;align=left;verticalAlign=middle;spacingLeft=4;spacingRight=4;overflow=hidden;points=[[0,0.5],[1,0.5]];portConstraint=eastwest;rotatable=0;whiteSpace=wrap;html=1;rounded=0;labelBackgroundColor=none;fontColor=#393C56;" vertex="1" parent="Vz3MWEpDqE40yLbbSGrD-33">
          <mxGeometry y="90" width="140" height="30" as="geometry" />
        </mxCell>
        <mxCell id="Vz3MWEpDqE40yLbbSGrD-37" value="Options" style="swimlane;fontStyle=0;childLayout=stackLayout;horizontal=1;startSize=30;horizontalStack=0;resizeParent=1;resizeParentMax=0;resizeLast=0;collapsible=1;marginBottom=0;whiteSpace=wrap;html=1;rounded=0;labelBackgroundColor=none;fillColor=#F2CC8F;strokeColor=#E07A5F;fontColor=#393C56;" vertex="1" parent="WIyWlLk6GJQsqaUBKTNV-1">
          <mxGeometry x="-40" y="30" width="140" height="60" as="geometry" />
        </mxCell>
        <mxCell id="Vz3MWEpDqE40yLbbSGrD-38" value="View" style="text;strokeColor=#E07A5F;fillColor=none;align=left;verticalAlign=middle;spacingLeft=4;spacingRight=4;overflow=hidden;points=[[0,0.5],[1,0.5]];portConstraint=eastwest;rotatable=0;whiteSpace=wrap;html=1;rounded=0;labelBackgroundColor=none;fontColor=#393C56;" vertex="1" parent="Vz3MWEpDqE40yLbbSGrD-37">
          <mxGeometry y="30" width="140" height="30" as="geometry" />
        </mxCell>
        <mxCell id="Vz3MWEpDqE40yLbbSGrD-41" style="edgeStyle=orthogonalEdgeStyle;rounded=0;orthogonalLoop=1;jettySize=auto;html=1;exitX=0;exitY=0.5;exitDx=0;exitDy=0;entryX=1;entryY=0.5;entryDx=0;entryDy=0;labelBackgroundColor=none;strokeColor=#E07A5F;fontColor=default;" edge="1" parent="WIyWlLk6GJQsqaUBKTNV-1" source="Vz3MWEpDqE40yLbbSGrD-34" target="Vz3MWEpDqE40yLbbSGrD-38">
          <mxGeometry relative="1" as="geometry" />
        </mxCell>
        <mxCell id="Vz3MWEpDqE40yLbbSGrD-65" style="edgeStyle=orthogonalEdgeStyle;rounded=0;orthogonalLoop=1;jettySize=auto;html=1;exitX=1;exitY=0.5;exitDx=0;exitDy=0;entryX=0;entryY=0.5;entryDx=0;entryDy=0;entryPerimeter=0;strokeColor=#E07A5F;fontColor=default;fillColor=#F2CC8F;labelBackgroundColor=none;" edge="1" parent="WIyWlLk6GJQsqaUBKTNV-1" source="Vz3MWEpDqE40yLbbSGrD-17" target="Vz3MWEpDqE40yLbbSGrD-19">
          <mxGeometry relative="1" as="geometry" />
        </mxCell>
        <mxCell id="Vz3MWEpDqE40yLbbSGrD-66" style="edgeStyle=orthogonalEdgeStyle;rounded=0;orthogonalLoop=1;jettySize=auto;html=1;exitX=1;exitY=0.5;exitDx=0;exitDy=0;strokeColor=#E07A5F;fontColor=default;fillColor=#F2CC8F;entryX=0;entryY=0.5;entryDx=0;entryDy=0;labelBackgroundColor=none;" edge="1" parent="WIyWlLk6GJQsqaUBKTNV-1" source="Vz3MWEpDqE40yLbbSGrD-42" target="Vz3MWEpDqE40yLbbSGrD-19">
          <mxGeometry relative="1" as="geometry">
            <mxPoint x="930" y="240" as="targetPoint" />
          </mxGeometry>
        </mxCell>
        <mxCell id="Vz3MWEpDqE40yLbbSGrD-67" style="edgeStyle=orthogonalEdgeStyle;rounded=0;orthogonalLoop=1;jettySize=auto;html=1;exitX=1;exitY=0.5;exitDx=0;exitDy=0;entryX=0;entryY=0.5;entryDx=0;entryDy=0;strokeColor=#E07A5F;fontColor=default;fillColor=#F2CC8F;labelBackgroundColor=none;" edge="1" parent="WIyWlLk6GJQsqaUBKTNV-1" source="Vz3MWEpDqE40yLbbSGrD-16" target="Vz3MWEpDqE40yLbbSGrD-19">
          <mxGeometry relative="1" as="geometry" />
        </mxCell>
        <mxCell id="Vz3MWEpDqE40yLbbSGrD-68" style="edgeStyle=orthogonalEdgeStyle;rounded=0;orthogonalLoop=1;jettySize=auto;html=1;exitX=1;exitY=0.5;exitDx=0;exitDy=0;entryX=0;entryY=0.5;entryDx=0;entryDy=0;strokeColor=#E07A5F;fontColor=default;fillColor=#F2CC8F;labelBackgroundColor=none;" edge="1" parent="WIyWlLk6GJQsqaUBKTNV-1" source="Vz3MWEpDqE40yLbbSGrD-43" target="Vz3MWEpDqE40yLbbSGrD-19">
          <mxGeometry relative="1" as="geometry" />
        </mxCell>
        <mxCell id="Vz3MWEpDqE40yLbbSGrD-69" style="edgeStyle=orthogonalEdgeStyle;rounded=0;orthogonalLoop=1;jettySize=auto;html=1;exitX=1;exitY=0.5;exitDx=0;exitDy=0;strokeColor=#E07A5F;fontColor=default;fillColor=#F2CC8F;entryX=0;entryY=0.5;entryDx=0;entryDy=0;labelBackgroundColor=none;" edge="1" parent="WIyWlLk6GJQsqaUBKTNV-1" source="Vz3MWEpDqE40yLbbSGrD-46" target="Vz3MWEpDqE40yLbbSGrD-19">
          <mxGeometry relative="1" as="geometry">
            <mxPoint x="800" y="50" as="targetPoint" />
          </mxGeometry>
        </mxCell>
        <mxCell id="Vz3MWEpDqE40yLbbSGrD-70" value="Options" style="swimlane;fontStyle=0;childLayout=stackLayout;horizontal=1;startSize=30;horizontalStack=0;resizeParent=1;resizeParentMax=0;resizeLast=0;collapsible=1;marginBottom=0;whiteSpace=wrap;html=1;rounded=0;labelBackgroundColor=none;fillColor=#F2CC8F;strokeColor=#E07A5F;fontColor=#393C56;" vertex="1" parent="WIyWlLk6GJQsqaUBKTNV-1">
          <mxGeometry x="380" y="550" width="140" height="150" as="geometry" />
        </mxCell>
        <mxCell id="Vz3MWEpDqE40yLbbSGrD-71" value="View&lt;br&gt;" style="text;strokeColor=#E07A5F;fillColor=none;align=left;verticalAlign=middle;spacingLeft=4;spacingRight=4;overflow=hidden;points=[[0,0.5],[1,0.5]];portConstraint=eastwest;rotatable=0;whiteSpace=wrap;html=1;rounded=0;labelBackgroundColor=none;fontColor=#393C56;" vertex="1" parent="Vz3MWEpDqE40yLbbSGrD-70">
          <mxGeometry y="30" width="140" height="30" as="geometry" />
        </mxCell>
        <mxCell id="Vz3MWEpDqE40yLbbSGrD-72" value="Edit" style="text;strokeColor=#E07A5F;fillColor=none;align=left;verticalAlign=middle;spacingLeft=4;spacingRight=4;overflow=hidden;points=[[0,0.5],[1,0.5]];portConstraint=eastwest;rotatable=0;whiteSpace=wrap;html=1;rounded=0;labelBackgroundColor=none;fontColor=#393C56;" vertex="1" parent="Vz3MWEpDqE40yLbbSGrD-70">
          <mxGeometry y="60" width="140" height="30" as="geometry" />
        </mxCell>
        <mxCell id="Vz3MWEpDqE40yLbbSGrD-73" value="Delete" style="text;strokeColor=#E07A5F;fillColor=none;align=left;verticalAlign=middle;spacingLeft=4;spacingRight=4;overflow=hidden;points=[[0,0.5],[1,0.5]];portConstraint=eastwest;rotatable=0;whiteSpace=wrap;html=1;rounded=0;labelBackgroundColor=none;fontColor=#393C56;" vertex="1" parent="Vz3MWEpDqE40yLbbSGrD-70">
          <mxGeometry y="90" width="140" height="30" as="geometry" />
        </mxCell>
        <mxCell id="Vz3MWEpDqE40yLbbSGrD-74" value="Create" style="text;strokeColor=#E07A5F;fillColor=none;align=left;verticalAlign=middle;spacingLeft=4;spacingRight=4;overflow=hidden;points=[[0,0.5],[1,0.5]];portConstraint=eastwest;rotatable=0;whiteSpace=wrap;html=1;rounded=0;labelBackgroundColor=none;fontColor=#393C56;" vertex="1" parent="Vz3MWEpDqE40yLbbSGrD-70">
          <mxGeometry y="120" width="140" height="30" as="geometry" />
        </mxCell>
        <mxCell id="Vz3MWEpDqE40yLbbSGrD-75" style="edgeStyle=orthogonalEdgeStyle;rounded=0;orthogonalLoop=1;jettySize=auto;html=1;exitX=1;exitY=0.5;exitDx=0;exitDy=0;entryX=0.5;entryY=0;entryDx=0;entryDy=0;strokeColor=#E07A5F;fontColor=default;fillColor=#F2CC8F;labelBackgroundColor=none;" edge="1" parent="WIyWlLk6GJQsqaUBKTNV-1" source="Vz3MWEpDqE40yLbbSGrD-26" target="Vz3MWEpDqE40yLbbSGrD-70">
          <mxGeometry relative="1" as="geometry" />
        </mxCell>
        <mxCell id="Vz3MWEpDqE40yLbbSGrD-76" style="edgeStyle=orthogonalEdgeStyle;rounded=0;orthogonalLoop=1;jettySize=auto;html=1;entryX=0.5;entryY=0;entryDx=0;entryDy=0;strokeColor=#E07A5F;fontColor=default;fillColor=#F2CC8F;labelBackgroundColor=none;" edge="1" parent="WIyWlLk6GJQsqaUBKTNV-1" source="Vz3MWEpDqE40yLbbSGrD-27" target="Vz3MWEpDqE40yLbbSGrD-70">
          <mxGeometry relative="1" as="geometry" />
        </mxCell>
        <mxCell id="Vz3MWEpDqE40yLbbSGrD-77" style="edgeStyle=orthogonalEdgeStyle;rounded=0;orthogonalLoop=1;jettySize=auto;html=1;entryX=0.5;entryY=0;entryDx=0;entryDy=0;strokeColor=#E07A5F;fontColor=default;fillColor=#F2CC8F;labelBackgroundColor=none;" edge="1" parent="WIyWlLk6GJQsqaUBKTNV-1" source="Vz3MWEpDqE40yLbbSGrD-45" target="Vz3MWEpDqE40yLbbSGrD-70">
          <mxGeometry relative="1" as="geometry" />
        </mxCell>
        <mxCell id="Vz3MWEpDqE40yLbbSGrD-78" style="edgeStyle=orthogonalEdgeStyle;rounded=0;orthogonalLoop=1;jettySize=auto;html=1;strokeColor=#E07A5F;fontColor=default;fillColor=#F2CC8F;entryX=0.5;entryY=0;entryDx=0;entryDy=0;labelBackgroundColor=none;" edge="1" parent="WIyWlLk6GJQsqaUBKTNV-1" source="Vz3MWEpDqE40yLbbSGrD-47" target="Vz3MWEpDqE40yLbbSGrD-70">
          <mxGeometry relative="1" as="geometry">
            <mxPoint x="650" y="500" as="targetPoint" />
          </mxGeometry>
        </mxCell>
        <mxCell id="Vz3MWEpDqE40yLbbSGrD-79" style="edgeStyle=orthogonalEdgeStyle;rounded=0;orthogonalLoop=1;jettySize=auto;html=1;exitX=1;exitY=0.5;exitDx=0;exitDy=0;entryX=0.5;entryY=0;entryDx=0;entryDy=0;strokeColor=#E07A5F;fontColor=default;fillColor=#F2CC8F;labelBackgroundColor=none;" edge="1" parent="WIyWlLk6GJQsqaUBKTNV-1" source="Vz3MWEpDqE40yLbbSGrD-25" target="Vz3MWEpDqE40yLbbSGrD-70">
          <mxGeometry relative="1" as="geometry" />
        </mxCell>
        <mxCell id="Vz3MWEpDqE40yLbbSGrD-80" value="Options" style="swimlane;fontStyle=0;childLayout=stackLayout;horizontal=1;startSize=30;horizontalStack=0;resizeParent=1;resizeParentMax=0;resizeLast=0;collapsible=1;marginBottom=0;whiteSpace=wrap;html=1;rounded=0;labelBackgroundColor=none;fillColor=#F2CC8F;strokeColor=#E07A5F;fontColor=#393C56;" vertex="1" parent="WIyWlLk6GJQsqaUBKTNV-1">
          <mxGeometry x="-60" y="140" width="140" height="120" as="geometry" />
        </mxCell>
        <mxCell id="Vz3MWEpDqE40yLbbSGrD-81" value="View" style="text;strokeColor=#E07A5F;fillColor=none;align=left;verticalAlign=middle;spacingLeft=4;spacingRight=4;overflow=hidden;points=[[0,0.5],[1,0.5]];portConstraint=eastwest;rotatable=0;whiteSpace=wrap;html=1;rounded=0;labelBackgroundColor=none;fontColor=#393C56;" vertex="1" parent="Vz3MWEpDqE40yLbbSGrD-80">
          <mxGeometry y="30" width="140" height="30" as="geometry" />
        </mxCell>
        <mxCell id="Vz3MWEpDqE40yLbbSGrD-84" value="Check in" style="text;strokeColor=#E07A5F;fillColor=none;align=left;verticalAlign=middle;spacingLeft=4;spacingRight=4;overflow=hidden;points=[[0,0.5],[1,0.5]];portConstraint=eastwest;rotatable=0;whiteSpace=wrap;html=1;rounded=0;labelBackgroundColor=none;fontColor=#393C56;" vertex="1" parent="Vz3MWEpDqE40yLbbSGrD-80">
          <mxGeometry y="60" width="140" height="30" as="geometry" />
        </mxCell>
        <mxCell id="Vz3MWEpDqE40yLbbSGrD-83" value="Check out" style="text;strokeColor=#E07A5F;fillColor=none;align=left;verticalAlign=middle;spacingLeft=4;spacingRight=4;overflow=hidden;points=[[0,0.5],[1,0.5]];portConstraint=eastwest;rotatable=0;whiteSpace=wrap;html=1;rounded=0;labelBackgroundColor=none;fontColor=#393C56;" vertex="1" parent="Vz3MWEpDqE40yLbbSGrD-80">
          <mxGeometry y="90" width="140" height="30" as="geometry" />
        </mxCell>
        <mxCell id="Vz3MWEpDqE40yLbbSGrD-82" style="edgeStyle=orthogonalEdgeStyle;rounded=0;orthogonalLoop=1;jettySize=auto;html=1;exitX=0;exitY=0.5;exitDx=0;exitDy=0;entryX=1;entryY=0.5;entryDx=0;entryDy=0;strokeColor=#E07A5F;fontColor=default;fillColor=#F2CC8F;labelBackgroundColor=none;" edge="1" parent="WIyWlLk6GJQsqaUBKTNV-1" source="Vz3MWEpDqE40yLbbSGrD-35" target="Vz3MWEpDqE40yLbbSGrD-80">
          <mxGeometry relative="1" as="geometry" />
        </mxCell>
        <mxCell id="Vz3MWEpDqE40yLbbSGrD-85" value="Options" style="swimlane;fontStyle=0;childLayout=stackLayout;horizontal=1;startSize=30;horizontalStack=0;resizeParent=1;resizeParentMax=0;resizeLast=0;collapsible=1;marginBottom=0;whiteSpace=wrap;html=1;rounded=0;labelBackgroundColor=none;fillColor=#F2CC8F;strokeColor=#E07A5F;fontColor=#393C56;" vertex="1" parent="WIyWlLk6GJQsqaUBKTNV-1">
          <mxGeometry x="-50" y="280" width="140" height="90" as="geometry" />
        </mxCell>
        <mxCell id="Vz3MWEpDqE40yLbbSGrD-86" value="View" style="text;strokeColor=#E07A5F;fillColor=none;align=left;verticalAlign=middle;spacingLeft=4;spacingRight=4;overflow=hidden;points=[[0,0.5],[1,0.5]];portConstraint=eastwest;rotatable=0;whiteSpace=wrap;html=1;rounded=0;labelBackgroundColor=none;fontColor=#393C56;" vertex="1" parent="Vz3MWEpDqE40yLbbSGrD-85">
          <mxGeometry y="30" width="140" height="30" as="geometry" />
        </mxCell>
        <mxCell id="Vz3MWEpDqE40yLbbSGrD-87" value="Edit" style="text;strokeColor=#E07A5F;fillColor=none;align=left;verticalAlign=middle;spacingLeft=4;spacingRight=4;overflow=hidden;points=[[0,0.5],[1,0.5]];portConstraint=eastwest;rotatable=0;whiteSpace=wrap;html=1;rounded=0;labelBackgroundColor=none;fontColor=#393C56;" vertex="1" parent="Vz3MWEpDqE40yLbbSGrD-85">
          <mxGeometry y="60" width="140" height="30" as="geometry" />
        </mxCell>
        <mxCell id="Vz3MWEpDqE40yLbbSGrD-89" style="edgeStyle=orthogonalEdgeStyle;rounded=0;orthogonalLoop=1;jettySize=auto;html=1;exitX=0;exitY=0.5;exitDx=0;exitDy=0;entryX=1;entryY=0.25;entryDx=0;entryDy=0;strokeColor=#E07A5F;fontColor=default;fillColor=#F2CC8F;labelBackgroundColor=none;" edge="1" parent="WIyWlLk6GJQsqaUBKTNV-1" source="Vz3MWEpDqE40yLbbSGrD-36" target="Vz3MWEpDqE40yLbbSGrD-85">
          <mxGeometry relative="1" as="geometry" />
        </mxCell>
        <mxCell id="Vz3MWEpDqE40yLbbSGrD-90" value="Branches" style="swimlane;fontStyle=0;childLayout=stackLayout;horizontal=1;startSize=30;horizontalStack=0;resizeParent=1;resizeParentMax=0;resizeLast=0;collapsible=1;marginBottom=0;whiteSpace=wrap;html=1;rounded=0;labelBackgroundColor=none;fillColor=#F2CC8F;strokeColor=#E07A5F;fontColor=#393C56;" vertex="1" parent="WIyWlLk6GJQsqaUBKTNV-1">
          <mxGeometry x="1010" y="660" width="140" height="240" as="geometry" />
        </mxCell>
        <mxCell id="Vz3MWEpDqE40yLbbSGrD-113" value="Schools" style="text;strokeColor=#E07A5F;fillColor=none;align=left;verticalAlign=middle;spacingLeft=4;spacingRight=4;overflow=hidden;points=[[0,0.5],[1,0.5]];portConstraint=eastwest;rotatable=0;whiteSpace=wrap;html=1;rounded=0;labelBackgroundColor=none;fontColor=#393C56;" vertex="1" parent="Vz3MWEpDqE40yLbbSGrD-90">
          <mxGeometry y="30" width="140" height="30" as="geometry" />
        </mxCell>
        <mxCell id="Vz3MWEpDqE40yLbbSGrD-91" value="Schools" style="text;strokeColor=#E07A5F;fillColor=none;align=left;verticalAlign=middle;spacingLeft=4;spacingRight=4;overflow=hidden;points=[[0,0.5],[1,0.5]];portConstraint=eastwest;rotatable=0;whiteSpace=wrap;html=1;rounded=0;labelBackgroundColor=none;fontColor=#393C56;" vertex="1" parent="Vz3MWEpDqE40yLbbSGrD-90">
          <mxGeometry y="60" width="140" height="30" as="geometry" />
        </mxCell>
        <mxCell id="Vz3MWEpDqE40yLbbSGrD-92" value="Students" style="text;strokeColor=#E07A5F;fillColor=none;align=left;verticalAlign=middle;spacingLeft=4;spacingRight=4;overflow=hidden;points=[[0,0.5],[1,0.5]];portConstraint=eastwest;rotatable=0;whiteSpace=wrap;html=1;rounded=0;labelBackgroundColor=none;fontColor=#393C56;" vertex="1" parent="Vz3MWEpDqE40yLbbSGrD-90">
          <mxGeometry y="90" width="140" height="30" as="geometry" />
        </mxCell>
        <mxCell id="Vz3MWEpDqE40yLbbSGrD-93" value="Sets&lt;span style=&quot;white-space: pre;&quot;&gt;&#x9;&lt;/span&gt;" style="text;strokeColor=#E07A5F;fillColor=none;align=left;verticalAlign=middle;spacingLeft=4;spacingRight=4;overflow=hidden;points=[[0,0.5],[1,0.5]];portConstraint=eastwest;rotatable=0;whiteSpace=wrap;html=1;rounded=0;labelBackgroundColor=none;fontColor=#393C56;" vertex="1" parent="Vz3MWEpDqE40yLbbSGrD-90">
          <mxGeometry y="120" width="140" height="30" as="geometry" />
        </mxCell>
        <mxCell id="Vz3MWEpDqE40yLbbSGrD-94" value="Classes" style="text;strokeColor=#E07A5F;fillColor=none;align=left;verticalAlign=middle;spacingLeft=4;spacingRight=4;overflow=hidden;points=[[0,0.5],[1,0.5]];portConstraint=eastwest;rotatable=0;whiteSpace=wrap;html=1;rounded=0;labelBackgroundColor=none;fontColor=#393C56;" vertex="1" parent="Vz3MWEpDqE40yLbbSGrD-90">
          <mxGeometry y="150" width="140" height="30" as="geometry" />
        </mxCell>
        <mxCell id="Vz3MWEpDqE40yLbbSGrD-95" value="Books" style="text;strokeColor=#E07A5F;fillColor=none;align=left;verticalAlign=middle;spacingLeft=4;spacingRight=4;overflow=hidden;points=[[0,0.5],[1,0.5]];portConstraint=eastwest;rotatable=0;whiteSpace=wrap;html=1;rounded=0;labelBackgroundColor=none;fontColor=#393C56;" vertex="1" parent="Vz3MWEpDqE40yLbbSGrD-90">
          <mxGeometry y="180" width="140" height="30" as="geometry" />
        </mxCell>
        <mxCell id="Vz3MWEpDqE40yLbbSGrD-96" value="Users" style="text;strokeColor=#E07A5F;fillColor=none;align=left;verticalAlign=middle;spacingLeft=4;spacingRight=4;overflow=hidden;points=[[0,0.5],[1,0.5]];portConstraint=eastwest;rotatable=0;whiteSpace=wrap;html=1;rounded=0;labelBackgroundColor=none;fontColor=#393C56;" vertex="1" parent="Vz3MWEpDqE40yLbbSGrD-90">
          <mxGeometry y="210" width="140" height="30" as="geometry" />
        </mxCell>
        <mxCell id="Vz3MWEpDqE40yLbbSGrD-101" value="Master" style="swimlane;fontStyle=0;childLayout=stackLayout;horizontal=1;startSize=30;horizontalStack=0;resizeParent=1;resizeParentMax=0;resizeLast=0;collapsible=1;marginBottom=0;whiteSpace=wrap;html=1;strokeColor=#E07A5F;fontColor=#393C56;fillColor=#F2CC8F;labelBackgroundColor=none;" vertex="1" parent="WIyWlLk6GJQsqaUBKTNV-1">
          <mxGeometry x="827" y="480" width="140" height="150" as="geometry" />
        </mxCell>
        <mxCell id="Vz3MWEpDqE40yLbbSGrD-102" value="School List" style="text;strokeColor=#E07A5F;fillColor=none;align=left;verticalAlign=middle;spacingLeft=4;spacingRight=4;overflow=hidden;points=[[0,0.5],[1,0.5]];portConstraint=eastwest;rotatable=0;whiteSpace=wrap;html=1;fontColor=#393C56;labelBackgroundColor=none;" vertex="1" parent="Vz3MWEpDqE40yLbbSGrD-101">
          <mxGeometry y="30" width="140" height="30" as="geometry" />
        </mxCell>
        <mxCell id="Vz3MWEpDqE40yLbbSGrD-103" value="&lt;span style=&quot;white-space: pre;&quot;&gt;&#x9;&lt;/span&gt;Edit School" style="text;strokeColor=none;fillColor=none;align=left;verticalAlign=middle;spacingLeft=4;spacingRight=4;overflow=hidden;points=[[0,0.5],[1,0.5]];portConstraint=eastwest;rotatable=0;whiteSpace=wrap;html=1;fontColor=#393C56;labelBackgroundColor=none;" vertex="1" parent="Vz3MWEpDqE40yLbbSGrD-101">
          <mxGeometry y="60" width="140" height="30" as="geometry" />
        </mxCell>
        <mxCell id="Vz3MWEpDqE40yLbbSGrD-104" value="&lt;span style=&quot;white-space: pre;&quot;&gt;&#x9;&lt;/span&gt;Delete School" style="text;strokeColor=#E07A5F;fillColor=none;align=left;verticalAlign=middle;spacingLeft=4;spacingRight=4;overflow=hidden;points=[[0,0.5],[1,0.5]];portConstraint=eastwest;rotatable=0;whiteSpace=wrap;html=1;fontColor=#393C56;labelBackgroundColor=none;" vertex="1" parent="Vz3MWEpDqE40yLbbSGrD-101">
          <mxGeometry y="90" width="140" height="30" as="geometry" />
        </mxCell>
        <mxCell id="Vz3MWEpDqE40yLbbSGrD-115" value="New school" style="text;strokeColor=#E07A5F;fillColor=none;align=left;verticalAlign=middle;spacingLeft=4;spacingRight=4;overflow=hidden;points=[[0,0.5],[1,0.5]];portConstraint=eastwest;rotatable=0;whiteSpace=wrap;html=1;fontColor=#393C56;labelBackgroundColor=none;" vertex="1" parent="Vz3MWEpDqE40yLbbSGrD-101">
          <mxGeometry y="120" width="140" height="30" as="geometry" />
        </mxCell>
        <mxCell id="Vz3MWEpDqE40yLbbSGrD-107" value="Options" style="swimlane;fontStyle=0;childLayout=stackLayout;horizontal=1;startSize=30;horizontalStack=0;resizeParent=1;resizeParentMax=0;resizeLast=0;collapsible=1;marginBottom=0;whiteSpace=wrap;html=1;rounded=0;labelBackgroundColor=none;fillColor=#F2CC8F;strokeColor=#E07A5F;fontColor=#393C56;" vertex="1" parent="WIyWlLk6GJQsqaUBKTNV-1">
          <mxGeometry x="160" y="555" width="140" height="60" as="geometry" />
        </mxCell>
        <mxCell id="Vz3MWEpDqE40yLbbSGrD-108" value="View&lt;br&gt;" style="text;strokeColor=#E07A5F;fillColor=none;align=left;verticalAlign=middle;spacingLeft=4;spacingRight=4;overflow=hidden;points=[[0,0.5],[1,0.5]];portConstraint=eastwest;rotatable=0;whiteSpace=wrap;html=1;rounded=0;labelBackgroundColor=none;fontColor=#393C56;" vertex="1" parent="Vz3MWEpDqE40yLbbSGrD-107">
          <mxGeometry y="30" width="140" height="30" as="geometry" />
        </mxCell>
        <mxCell id="Vz3MWEpDqE40yLbbSGrD-106" style="edgeStyle=orthogonalEdgeStyle;rounded=0;orthogonalLoop=1;jettySize=auto;html=1;exitX=0;exitY=0.5;exitDx=0;exitDy=0;strokeColor=#E07A5F;fontColor=#393C56;fillColor=#F2CC8F;entryX=0.5;entryY=0;entryDx=0;entryDy=0;" edge="1" parent="WIyWlLk6GJQsqaUBKTNV-1" source="Vz3MWEpDqE40yLbbSGrD-105" target="Vz3MWEpDqE40yLbbSGrD-107">
          <mxGeometry relative="1" as="geometry">
            <mxPoint x="240" y="560" as="targetPoint" />
          </mxGeometry>
        </mxCell>
        <mxCell id="Vz3MWEpDqE40yLbbSGrD-97" value="School" style="swimlane;fontStyle=0;childLayout=stackLayout;horizontal=1;startSize=30;horizontalStack=0;resizeParent=1;resizeParentMax=0;resizeLast=0;collapsible=1;marginBottom=0;whiteSpace=wrap;html=1;strokeColor=#E07A5F;fontColor=#393C56;fillColor=#F2CC8F;labelBackgroundColor=none;" vertex="1" parent="WIyWlLk6GJQsqaUBKTNV-1">
          <mxGeometry x="1230" y="480" width="140" height="60" as="geometry" />
        </mxCell>
        <mxCell id="Vz3MWEpDqE40yLbbSGrD-98" value="View All" style="text;strokeColor=#E07A5F;fillColor=none;align=left;verticalAlign=middle;spacingLeft=4;spacingRight=4;overflow=hidden;points=[[0,0.5],[1,0.5]];portConstraint=eastwest;rotatable=0;whiteSpace=wrap;html=1;fontColor=#393C56;labelBackgroundColor=none;" vertex="1" parent="Vz3MWEpDqE40yLbbSGrD-97">
          <mxGeometry y="30" width="140" height="30" as="geometry" />
        </mxCell>
        <mxCell id="Vz3MWEpDqE40yLbbSGrD-112" style="edgeStyle=orthogonalEdgeStyle;rounded=0;orthogonalLoop=1;jettySize=auto;html=1;exitX=1;exitY=0.5;exitDx=0;exitDy=0;entryX=-0.007;entryY=0.083;entryDx=0;entryDy=0;entryPerimeter=0;strokeColor=#E07A5F;fontColor=#393C56;fillColor=#F2CC8F;" edge="1" parent="WIyWlLk6GJQsqaUBKTNV-1" source="Vz3MWEpDqE40yLbbSGrD-113" target="Vz3MWEpDqE40yLbbSGrD-97">
          <mxGeometry relative="1" as="geometry" />
        </mxCell>
        <mxCell id="Vz3MWEpDqE40yLbbSGrD-114" style="edgeStyle=orthogonalEdgeStyle;rounded=0;orthogonalLoop=1;jettySize=auto;html=1;exitX=0;exitY=0.5;exitDx=0;exitDy=0;entryX=1;entryY=0.5;entryDx=0;entryDy=0;strokeColor=#E07A5F;fontColor=#393C56;fillColor=#F2CC8F;" edge="1" parent="WIyWlLk6GJQsqaUBKTNV-1" source="Vz3MWEpDqE40yLbbSGrD-113" target="Vz3MWEpDqE40yLbbSGrD-102">
          <mxGeometry relative="1" as="geometry" />
        </mxCell>
      </root>
    </mxGraphModel>
  </diagram>
</mxfile>
